<svg xmlns="http://www.w3.org/2000/svg" xmlns:xlink="http://www.w3.org/1999/xlink" width="420.7919" height="340.2376" viewBox="0 0 394.4924 318.9727"><defs><marker orient="auto" id="ad" overflow="visible"><path d="M4 0l2-2-7 2 7 2-2-2z" fill-rule="evenodd" stroke="red" stroke-width=".4pt" fill="red"/></marker><marker orient="auto" id="ac" overflow="visible"><path d="M-4 0l-2 2 7-2-7-2 2 2z" fill-rule="evenodd" stroke="#000" stroke-width=".4pt"/></marker><marker id="ab" orient="auto" overflow="visible"><path d="M-4 0l-2 2 7-2-7-2 2 2z" fill-rule="evenodd" stroke="#000" stroke-width=".4pt"/></marker><marker id="X" orient="auto" overflow="visible"><path d="M-4 0l-2 2 7-2-7-2 2 2z" fill-rule="evenodd" stroke="#000" stroke-width=".4pt"/></marker><marker orient="auto" id="E" overflow="visible"><path d="M-4 0l-2 2 7-2-7-2 2 2z" fill-rule="evenodd" stroke="#000" stroke-width=".4pt"/></marker><marker id="V" orient="auto" overflow="visible"><path d="M-4 0l-2 2 7-2-7-2 2 2z" fill-rule="evenodd" stroke="#000" stroke-width=".4pt"/></marker><marker orient="auto" id="U" overflow="visible"><path d="M-4 0l-2 2 7-2-7-2 2 2z" fill-rule="evenodd" stroke="#000" stroke-width=".4pt"/></marker><marker orient="auto" id="N" overflow="visible"><path d="M-4 0l-2 2 7-2-7-2 2 2z" fill-rule="evenodd" stroke="#000" stroke-width=".4pt"/></marker><marker id="M" orient="auto" overflow="visible"><path d="M-4 0l-2 2 7-2-7-2 2 2z" fill-rule="evenodd" stroke="#000" stroke-width=".4pt"/></marker><marker orient="auto" id="W" overflow="visible"><path d="M-4 0l-2 2 7-2-7-2 2 2z" fill-rule="evenodd" stroke="#000" stroke-width=".4pt"/></marker><linearGradient id="a"><stop offset="0" stop-color="#fff"/><stop offset="1" stop-color="#fff" stop-opacity="0"/></linearGradient><linearGradient y2="30" y1="19.5" xlink:href="#a" x2="15.7857" x1="16.0714" id="T" gradientUnits="userSpaceOnUse" gradientTransform="translate(-152.982 9.3716) scale(21.14292)"/><linearGradient id="b"><stop offset="0" stop-color="#fff"/><stop offset="1" stop-color="#729fcf"/></linearGradient><linearGradient y2="13.285" y1="16.5251" xlink:href="#b" x2="24" x1="24" id="S" gradientUnits="userSpaceOnUse"/><linearGradient y2="56.5759" y1="14.0045" xlink:href="#c" x2="37.9694" x1="17.1601" id="R" gradientUnits="userSpaceOnUse" gradientTransform="translate(-149.9615 -46.5062) scale(21.14292)"/><linearGradient id="d"><stop offset="0" stop-color="#204a87"/><stop offset="1" stop-color="#3465a4"/></linearGradient><linearGradient y2="25.4286" y1="21.8571" xlink:href="#d" x2="25.2076" x1="25.0647" id="Q" gradientUnits="userSpaceOnUse" gradientTransform="translate(-149.9615 -46.5062) scale(21.14292)"/><linearGradient y2="26.7188" y1="26.7188" xlink:href="#e" x2="38.8264" x1="9.3031" id="P" gradientUnits="userSpaceOnUse" gradientTransform="translate(-149.9615 -46.5062) scale(21.14292)"/><linearGradient id="g"><stop offset="0" stop-color="#fff"/><stop offset=".3793" stop-color="#fefefe"/><stop offset="1" stop-color="#1d1d1d"/></linearGradient><linearGradient id="f"><stop offset="0"/><stop offset="1" stop-opacity="0"/></linearGradient><linearGradient id="h"><stop offset="0" stop-color="#3465a4"/><stop offset="0" stop-color="#9fbce1"/><stop offset="0" stop-color="#6b95ca"/><stop offset=".75" stop-color="#3d6aa5"/><stop offset="1" stop-color="#386eb4"/></linearGradient><linearGradient id="i"><stop offset="0" stop-color="#98a0a9"/><stop offset="1" stop-color="#c3d0dd"/></linearGradient><linearGradient id="j"><stop offset="0" stop-color="#fff"/><stop offset="1"/></linearGradient><linearGradient id="k"><stop offset="0" stop-color="#b6b6b6"/><stop offset=".5" stop-color="#f2f2f2"/><stop offset=".6761" stop-color="#fafafa"/><stop offset=".8405" stop-color="#d8d8d8"/><stop offset=".875" stop-color="#f2f2f2"/><stop offset="1" stop-color="#dbdbdb"/></linearGradient><linearGradient id="l"><stop offset="0" stop-opacity="0"/><stop offset=".5"/><stop offset="1" stop-opacity="0"/></linearGradient><linearGradient id="q"><stop offset="0"/><stop offset="1" stop-color="#c9c9c9"/></linearGradient><linearGradient id="s"><stop offset="0" stop-color="#c1c1c1"/><stop offset="1" stop-color="#acacac"/></linearGradient><linearGradient id="t"><stop offset="0" stop-color="#ffd1d1"/><stop offset=".5" stop-color="#ff1d1d"/><stop offset="1" stop-color="#6f0000"/></linearGradient><linearGradient id="o"><stop offset="0" stop-color="#3465a4"/><stop offset="1" stop-color="#3465a4"/></linearGradient><linearGradient id="n"><stop offset="0" stop-color="#b9e7c9"/><stop offset="1" stop-color="#72cf79"/></linearGradient><linearGradient id="m"><stop offset="0" stop-color="#72cf7b"/><stop offset="1" stop-color="#57c552"/></linearGradient><linearGradient id="c"><stop offset="0" stop-color="#3465a4"/><stop offset="1" stop-color="#729fcf" stop-opacity="0"/></linearGradient><linearGradient id="w"><stop offset="0" stop-color="#f5f5f5" stop-opacity=".09"/><stop offset=".2632" stop-color="#fff" stop-opacity=".9"/><stop offset=".7479" stop-color="#c7c7c7" stop-opacity=".46"/><stop offset="1" stop-color="#fff" stop-opacity=".7804"/></linearGradient><linearGradient id="v"><stop offset="0" stop-color="#959791"/><stop offset=".5" stop-color="#f8f8f8"/><stop offset="1" stop-color="#8c8c8c"/></linearGradient><linearGradient id="u"><stop offset="0" stop-color="#fff"/><stop offset=".3289" stop-color="#fff" stop-opacity=".69"/><stop offset=".6579" stop-color="#c2c2c2" stop-opacity=".34"/><stop offset="1" stop-color="#fff" stop-opacity="0"/></linearGradient><linearGradient id="r"><stop offset="0" stop-color="#e7e2b8"/><stop offset="1" stop-color="#e7e2b8" stop-opacity="0"/></linearGradient><linearGradient id="e"><stop offset="0" stop-color="#729fcf"/><stop offset=".3158" stop-color="#a5bfda"/><stop offset="1" stop-color="#376ca4"/></linearGradient><linearGradient id="p"><stop offset="0" stop-color="#5b90c8"/><stop offset=".3158" stop-color="#8fb0d1"/><stop offset="1" stop-color="#34679d"/></linearGradient><radialGradient xlink:href="#f" r="17.1429" id="O" gradientUnits="userSpaceOnUse" gradientTransform="matrix(1 0 0 .5 0 20)" fy="40" fx="23.8571" cy="40" cx="23.8571"/><radialGradient r="15.82" gradientTransform="matrix(1.076 0 0 .285 -1.85 30.8)" cx="24.31" cy="42.1" gradientUnits="userSpaceOnUse" id="z"><stop offset="0"/><stop offset="1" stop-opacity="0"/></radialGradient><radialGradient r="86.7" gradientTransform="scale(.961 1.041)" cx="33.97" cy="35.74" gradientUnits="userSpaceOnUse" id="A"><stop offset="0" stop-color="#fafafa"/><stop offset="1" stop-color="#bbb"/></radialGradient><radialGradient r="37.75" gradientTransform="matrix(.968 0 0 1.033 3.35 .65)" cx="8.82" cy="3.76" gradientUnits="userSpaceOnUse" id="B"><stop offset="0" stop-color="#a3a3a3"/><stop offset="1" stop-color="#4c4c4c"/></radialGradient><radialGradient r="38.2" gradientTransform="matrix(.968 0 0 1.033 3.35 .65)" cx="8.14" cy="7.27" gradientUnits="userSpaceOnUse" id="C"><stop offset="0" stop-color="#fff"/><stop offset="1" stop-color="#f8f8f8"/></radialGradient><radialGradient r="1.21" cx="10.1" cy="18.82" gradientUnits="userSpaceOnUse" id="D"><stop offset="0" stop-color="#f0f0f0"/><stop offset="1" stop-color="#9a9a9a"/></radialGradient><linearGradient id="x"><stop offset="0" stop-color="#ffe052"/><stop offset="1" stop-color="#ffc331"/></linearGradient><linearGradient xlink:href="#x" id="Z" x1="89.1367" y1="111.9205" x2="147.7774" y2="168.1012" gradientUnits="userSpaceOnUse"/><linearGradient id="y"><stop offset="0" stop-color="#387eb8"/><stop offset="1" stop-color="#366994"/></linearGradient><linearGradient xlink:href="#y" id="Y" x1="55.5492" y1="77.0703" x2="110.1492" y2="131.8529" gradientUnits="userSpaceOnUse"/><radialGradient xlink:href="#z" id="F" gradientUnits="userSpaceOnUse" gradientTransform="matrix(1.076 0 0 .285 -1.85 30.8)" cx="24.31" cy="42.1" r="15.82"/><radialGradient xlink:href="#A" id="G" gradientUnits="userSpaceOnUse" gradientTransform="scale(.961 1.041)" cx="33.97" cy="35.74" r="86.7"/><radialGradient xlink:href="#B" id="H" gradientUnits="userSpaceOnUse" gradientTransform="matrix(.968 0 0 1.033 3.35 .65)" cx="8.82" cy="3.76" r="37.75"/><radialGradient xlink:href="#C" id="I" gradientUnits="userSpaceOnUse" gradientTransform="matrix(.968 0 0 1.033 3.35 .65)" cx="8.14" cy="7.27" r="38.2"/><radialGradient xlink:href="#D" id="K" gradientUnits="userSpaceOnUse" cx="10.1" cy="18.82" r="1.21"/></defs><g transform="translate(-61.8813 24.2139)"><text style="line-height:0%;-inkscape-font-specification:'sans-serif, Normal';text-align:start" x="122.3801" y="52.1549" font-weight="400" font-family="sans-serif" letter-spacing="0" word-spacing="0"><tspan x="122.3801" y="52.1549" style="line-height:1.25" font-size="25">.read.csv</tspan></text><text y="52.1549" x="250.1294" style="line-height:0%;-inkscape-font-specification:'sans-serif, Normal';text-align:start" font-weight="400" font-family="sans-serif" letter-spacing="0" word-spacing="0"><tspan y="52.1549" x="250.1294" style="line-height:1.25" font-size="25">.cassandraTable</tspan></text><text y="106.8743" x="122.3801" style="line-height:0%;-inkscape-font-specification:'sans-serif, Normal';text-align:start" font-weight="400" font-family="sans-serif" letter-spacing="0" word-spacing="0"><tspan y="106.8743" x="122.3801" style="line-height:1.25" font-size="25">.select</tspan></text><text style="line-height:0%;-inkscape-font-specification:'sans-serif, Normal';text-align:start" x="250.1294" y="106.8743" font-weight="400" font-family="sans-serif" letter-spacing="0" word-spacing="0"><tspan x="250.1294" y="106.8743" style="line-height:1.25" font-size="25">.filter</tspan></text><text style="line-height:0%;-inkscape-font-specification:'sans-serif, Normal';text-align:start" x="157.8444" y="150.5446" font-weight="400" font-family="sans-serif" letter-spacing="0" word-spacing="0"><tspan x="157.8444" y="150.5446" style="line-height:1.25" font-size="25">.join</tspan></text><text style="line-height:0%;-inkscape-font-specification:'sans-serif, Normal';text-align:start" x="186.2563" y="201.0548" font-weight="400" font-family="sans-serif" letter-spacing="0" word-spacing="0"><tspan x="186.2563" y="201.0548" style="line-height:1.25" font-size="25">.select</tspan></text><text y="239.2005" x="210.4591" style="line-height:0%;-inkscape-font-specification:'sans-serif, Normal';text-align:start" font-weight="400" font-family="sans-serif" letter-spacing="0" word-spacing="0"><tspan y="239.2005" x="210.4591" style="line-height:1.25" font-size="25">.write.csv</tspan></text><path d="M183.9413 176.16v37.8827" fill="none" stroke="#000" marker-end="url(#E)" transform="translate(-.4716)"/><g transform="translate(-.4716)"><circle cx="120.8608" cy="70.576" r="7.1712" fill="#cce8d0" stroke="#000" stroke-linejoin="round"/><circle r="7.1712" cy="128.1833" cx="120.8608" fill="#cce8d0" stroke="#000" stroke-linejoin="round"/><g id="aa" transform="matrix(.84508 0 0 .84508 100.5452 -21.3323)"><ellipse cx="24.3" cy="42.8" ry="4.5" rx="17" opacity=".8" fill="url(#F)"/><rect x="6.6" y="3.65" width="34.88" height="41" rx="1.2" fill="url(#G)" stroke="url(#H)"/><rect x="7.66" y="4.58" width="32.78" height="39" rx=".2" fill="none" stroke="url(#I)"/><g fill="none"><path d="M11.5 5.4v37.9" stroke="#000" stroke-opacity=".02"/><path d="M12.5 5v38" stroke="#fff" stroke-opacity=".2"/></g><g fill="#9b9b9b" fill-opacity=".55"><g id="J"><rect x="16" y="9" width="20" height="1" rx=".2"/><rect x="16" y="11" width="20" height="1" rx=".2"/><rect x="16" y="13" width="20" height="1" rx=".2"/><rect x="16" y="15" width="20" height="1" rx=".2"/></g><rect x="16" y="25" width="9" height="1" rx=".2"/><rect x="16" y="37" width="14" height="1" rx=".2"/><use xlink:href="#J" y="8" width="100%" height="100%"/><use xlink:href="#J" y="20" width="100%" height="100%"/></g><g id="L"><circle r=".82" cx="10.17" cy="18.69" fill="#fff"/><circle r=".82" cx="9.82" cy="18.43" fill="url(#K)"/></g><use y="11.5" xlink:href="#L" width="100%" height="100%"/></g><path d="M120.8608 79.4833v37.8827" fill="none" stroke="#000" marker-end="url(#M)"/><path d="M120.8608 21.876v37.8827" fill="none" stroke="#000" marker-end="url(#N)"/></g><g transform="translate(-.4716)"><circle r="7.1712" cy="70.576" cx="247.0218" fill="#cce8d0" stroke="#000" stroke-linejoin="round"/><circle cx="247.0218" cy="128.1833" r="7.1712" fill="#cce8d0" stroke="#000" stroke-linejoin="round"/><g transform="translate(229.5197 -26.3013) scale(.0486)"><path fill="none" d="M-64.8798 115.8557h850v850h-850z"/><ellipse transform="matrix(22.38511 0 0 24.34097 -173.556 -227.5451)" style="marker:none" cx="23.8571" cy="40" rx="17.1429" ry="8.5714" display="block" overflow="visible" fill="url(#O)"/><path style="marker:none" d="M356.1466 141.798c-166.1707 0-301.2862 59.253-301.2862 132.1432V762.871c0 72.8902 135.1155 132.1432 301.2862 132.1432 166.1706 0 306.6674-59.253 306.6674-132.1432v-488.93c0-72.8901-140.4968-132.1432-306.6674-132.1432z" display="block" overflow="visible" fill="url(#P)" stroke="url(#Q)" stroke-width="21.1429" stroke-miterlimit="10"/><path style="marker:none" d="M356.3284 158.275c-154.929 0-280.9046 55.2448-280.9046 123.2042v467.814c0 67.9592 125.9757 123.204 280.9046 123.204 154.931 0 285.922-55.2448 285.922-123.204v-467.814c0-67.9594-130.991-123.2042-285.922-123.2042z" display="block" overflow="visible" opacity=".5443" fill="none" stroke="url(#R)" stroke-width="21.1429" stroke-miterlimit="10"/><ellipse transform="matrix(21.93136 0 0 20.18343 -168.884 -11.8622)" style="marker:none" cx="24" cy="14.0714" rx="12.8571" ry="5.5" display="block" overflow="visible" fill="#3465a4" stroke="url(#S)" stroke-width="1.0049" stroke-miterlimit="10"/><path style="marker:none" d="M138.4887 370.3112l7.5501 354.899 96.6528 27.1837-3.0192-353.3886s43.7954 0 114.7764-4.5307c-110.2772-4.9278-236.4497-52.322-279.3895-83.0614 29.958 44.2348 63.4294 58.898 63.4294 58.898z" display="block" overflow="visible" opacity=".4937" fill="url(#T)"/></g><path d="M247.0218 79.4833v37.8827" fill="none" stroke="#000" marker-end="url(#U)"/><path d="M247.0218 21.876v37.8827" fill="none" stroke="#000" marker-end="url(#V)"/></g><g transform="translate(-2.1905)" stroke="#000"><path d="M127.854 135.5494l47.3533 25.7812" fill="none" marker-end="url(#W)"/><circle r="7.1712" cy="166.329" cx="185.6602" fill="#cce8d0" stroke-linejoin="round"/><path d="M243.4665 135.5494l-47.3533 25.7812" fill="none" marker-end="url(#X)"/></g><g color="#000"><path d="M99.75 67.4688c-28.0317 0-26.2813 12.1562-26.2813 12.1562L73.5 92.2188h26.75V96H62.875s-17.9375-2.0343-17.9375 26.25 15.6563 27.2813 15.6563 27.2813h9.3437v-13.125S69.4338 120.75 85.3438 120.75h26.5312s14.9063.241 14.9063-14.4063V82.125s2.2631-14.6563-27.0313-14.6563zM85 75.9374c2.6614 0 4.8125 2.151 4.8125 4.8125 0 2.6614-2.151 4.8125-4.8125 4.8125-2.6614 0-4.8125-2.151-4.8125-4.8125 0-2.6614 2.151-4.8125 4.8125-4.8125z" style="marker:none" overflow="visible" fill="url(#Y)" transform="matrix(.36774 0 0 .36774 78.8594 226.0102)"/><path style="marker:none" d="M100.5461 177.3149c28.0317 0 26.2813-12.1563 26.2813-12.1563l-.0313-12.5938h-26.75v-3.7812h37.375s17.9376 2.0343 17.9376-26.25-15.6563-27.2813-15.6563-27.2813h-9.3438v13.125s.5037 15.6563-15.4062 15.6563H88.4211s-14.9062-.241-14.9062 14.4062v24.2188s-2.2632 14.6563 27.0313 14.6563zm14.75-8.4688c-2.6614 0-4.8125-2.151-4.8125-4.8125 0-2.6614 2.151-4.8125 4.8125-4.8125 2.6614 0 4.8125 2.151 4.8125 4.8125 0 2.6614-2.151 4.8125-4.8125 4.8125z" overflow="visible" fill="url(#Z)" transform="matrix(.36774 0 0 .36774 78.8594 226.0102)"/></g><use xlink:href="#aa" transform="translate(138.377 270.4401)" width="100%" height="100%"/><circle cx="183.6909" cy="225.2576" r="7.1712" fill="#cce8d0" stroke="#000" stroke-linejoin="round"/><g fill="none" stroke="#000"><path d="M195.727 232.8868l47.3534 25.7812" marker-end="url(#ab)" transform="translate(-3.2847 -.5261)"/><path d="M178.2241 232.8868l-47.3533 25.7812" marker-end="url(#ac)" transform="translate(-3.2847 -.5261)"/></g><text style="line-height:0%;-inkscape-font-specification:'sans-serif, Normal';text-align:start" x="66.2946" y="239.2005" font-weight="400" font-family="sans-serif" letter-spacing="0" word-spacing="0"><tspan x="66.2946" y="239.2005" style="line-height:1.25" font-size="25">.collect</tspan><tspan x="66.2946" y="270.4505" style="line-height:1.25" font-size="25"></tspan></text><text y="193.6887" x="296.6683" style="line-height:0%;-inkscape-font-specification:'sans-serif, Normal';text-align:start" font-weight="400" font-family="sans-serif" letter-spacing="0" word-spacing="0" fill="red"><tspan y="193.6887" x="296.6683" style="line-height:1.25" font-size="25">.cache</tspan></text><path d="M189.7353 210.049c86.2883 6.84 107.8603-12.6275 107.8603-12.6275" fill="none" stroke="red" stroke-width="2" marker-start="url(#ad)"/></g></svg>